<mxfile host="app.diagrams.net" modified="2023-09-27T04:15:04.537Z" agent="Mozilla/5.0 (Macintosh; Intel Mac OS X 10_15_7) AppleWebKit/537.36 (KHTML, like Gecko) Chrome/115.0.0.0 Safari/537.36" version="21.7.1" etag="TBylnyuJLpri5AIMY5Bo" type="github">
  <diagram name="Page-1" id="dBN5VId4BhCVySeOM13n">
    <mxGraphModel>
      <root>
        <mxCell id="0" />
        <mxCell id="1" parent="0" />
      </root>
    </mxGraphModel>
  </diagram>
</mxfile>
